<?xml version="1.0" encoding="UTF-8" standalone="no"?>
<!DOCTYPE svg PUBLIC "-//W3C//DTD SVG 1.1//EN"
 "http://www.w3.org/Graphics/SVG/1.1/DTD/svg11.dtd">
<!-- Generated by graphviz version 2.38.0 (20140413.2041)
 -->
<!-- Title: for1 Pages: 1 -->
<svg width="214pt" height="224pt"
 viewBox="0.00 0.00 213.50 224.00" xmlns="http://www.w3.org/2000/svg" xmlns:xlink="http://www.w3.org/1999/xlink">
<g id="graph0" class="graph" transform="scale(1 1) rotate(0) translate(4 220)">
<title>for1</title>
<polygon fill="white" stroke="none" points="-4,4 -4,-220 209.5,-220 209.5,4 -4,4"/>
<!-- B0 -->
<g id="node1" class="node"><title>B0</title>
<polygon fill="none" stroke="black" points="129.5,-216 17.5,-216 17.5,-178 129.5,-178 129.5,-216"/>
<text text-anchor="start" x="25.5" y="-200.8" font-family="Times,serif" font-size="14.00">B0:</text>
<text text-anchor="middle" x="73.5" y="-185.8" font-family="Times,serif" font-size="14.00">(1) loop&#45;initialize</text>
</g>
<!-- B1 -->
<g id="node2" class="node"><title>B1</title>
<polygon fill="none" stroke="black" points="147,-142 0,-142 0,-104 147,-104 147,-142"/>
<text text-anchor="start" x="8" y="-126.8" font-family="Times,serif" font-size="14.00">B1:</text>
<text text-anchor="middle" x="73.5" y="-111.8" font-family="Times,serif" font-size="14.00">(2) if !loop&#45;test goto (6)</text>
</g>
<!-- B0&#45;&gt;B1 -->
<g id="edge1" class="edge"><title>B0&#45;&gt;B1</title>
<path fill="none" stroke="black" d="M73.5,-177.831C73.5,-170.131 73.5,-160.974 73.5,-152.417"/>
<polygon fill="black" stroke="black" points="77.0001,-152.413 73.5,-142.413 70.0001,-152.413 77.0001,-152.413"/>
</g>
<!-- B2 -->
<g id="node3" class="node"><title>B2</title>
<polygon fill="none" stroke="black" points="133,-68 14,-68 14,-0 133,-0 133,-68"/>
<text text-anchor="start" x="22" y="-52.8" font-family="Times,serif" font-size="14.00">B2:</text>
<text text-anchor="start" x="22" y="-37.8" font-family="Times,serif" font-size="14.00">(3) loop&#45;body</text>
<text text-anchor="start" x="22" y="-22.8" font-family="Times,serif" font-size="14.00">(4) loop&#45;increment</text>
<text text-anchor="start" x="22" y="-7.8" font-family="Times,serif" font-size="14.00">(5) goto (2)</text>
</g>
<!-- B1&#45;&gt;B2 -->
<g id="edge2" class="edge"><title>B1&#45;&gt;B2</title>
<path fill="none" stroke="black" d="M67.9073,-103.974C67.1296,-96.4519 66.7438,-87.3613 66.7501,-78.2833"/>
<polygon fill="black" stroke="black" points="70.2522,-78.182 66.9237,-68.1236 63.2532,-78.0623 70.2522,-78.182"/>
</g>
<!-- B3 -->
<g id="node4" class="node"><title>B3</title>
<polygon fill="none" stroke="black" points="205.5,-53 151.5,-53 151.5,-15 205.5,-15 205.5,-53"/>
<text text-anchor="start" x="159.5" y="-37.8" font-family="Times,serif" font-size="14.00">B3:</text>
<text text-anchor="middle" x="178.5" y="-22.8" font-family="Times,serif" font-size="14.00">(6) ...</text>
</g>
<!-- B1&#45;&gt;B3 -->
<g id="edge4" class="edge"><title>B1&#45;&gt;B3</title>
<path fill="none" stroke="black" d="M97.4964,-103.953C110.934,-93.6663 127.878,-80.3913 142.5,-68 145.542,-65.422 148.682,-62.6775 151.78,-59.9145"/>
<polygon fill="black" stroke="black" points="154.251,-62.3983 159.318,-53.0933 149.555,-57.2079 154.251,-62.3983"/>
</g>
<!-- B2&#45;&gt;B1 -->
<g id="edge3" class="edge"><title>B2&#45;&gt;B1</title>
<path fill="none" stroke="black" d="M80.0763,-68.1236C80.3646,-76.5877 80.294,-85.6085 79.8643,-93.7997"/>
<polygon fill="black" stroke="black" points="76.3591,-93.7375 79.0927,-103.974 83.339,-94.2669 76.3591,-93.7375"/>
</g>
</g>
</svg>
