<?xml version="1.0" encoding="UTF-8" standalone="no"?>
<!DOCTYPE svg PUBLIC "-//W3C//DTD SVG 1.1//EN"
 "http://www.w3.org/Graphics/SVG/1.1/DTD/svg11.dtd">
<!-- Generated by graphviz version 2.38.0 (20140413.2041)
 -->
<!-- Title: for2 Pages: 1 -->
<svg width="208pt" height="224pt"
 viewBox="0.00 0.00 208.00 224.00" xmlns="http://www.w3.org/2000/svg" xmlns:xlink="http://www.w3.org/1999/xlink">
<g id="graph0" class="graph" transform="scale(1 1) rotate(0) translate(4 220)">
<title>for2</title>
<polygon fill="white" stroke="none" points="-4,4 -4,-220 204,-220 204,4 -4,4"/>
<!-- B0 -->
<g id="node1" class="node"><title>B0</title>
<polygon fill="none" stroke="black" points="124,-216 12,-216 12,-163 124,-163 124,-216"/>
<text text-anchor="start" x="20" y="-200.8" font-family="Times,serif" font-size="14.00">B0:</text>
<text text-anchor="start" x="20" y="-185.8" font-family="Times,serif" font-size="14.00">(1) loop&#45;initialize</text>
<text text-anchor="start" x="20" y="-170.8" font-family="Times,serif" font-size="14.00">(2) goto (5)</text>
</g>
<!-- B2 -->
<g id="node3" class="node"><title>B2</title>
<polygon fill="none" stroke="black" points="136,-127 0,-127 0,-89 136,-89 136,-127"/>
<text text-anchor="start" x="8" y="-111.8" font-family="Times,serif" font-size="14.00">B2:</text>
<text text-anchor="middle" x="68" y="-96.8" font-family="Times,serif" font-size="14.00">(5) if loo&#45;test goto (3)</text>
</g>
<!-- B0&#45;&gt;B2 -->
<g id="edge3" class="edge"><title>B0&#45;&gt;B2</title>
<path fill="none" stroke="black" d="M68,-162.908C68,-154.738 68,-145.649 68,-137.298"/>
<polygon fill="black" stroke="black" points="71.5001,-137.239 68,-127.239 64.5001,-137.239 71.5001,-137.239"/>
</g>
<!-- B1 -->
<g id="node2" class="node"><title>B1</title>
<polygon fill="none" stroke="black" points="127.5,-53 8.5,-53 8.5,-0 127.5,-0 127.5,-53"/>
<text text-anchor="start" x="16.5" y="-37.8" font-family="Times,serif" font-size="14.00">B1:</text>
<text text-anchor="start" x="16.5" y="-22.8" font-family="Times,serif" font-size="14.00">(3) loop&#45;body</text>
<text text-anchor="start" x="16.5" y="-7.8" font-family="Times,serif" font-size="14.00">(4) loop&#45;increment</text>
</g>
<!-- B1&#45;&gt;B2 -->
<g id="edge2" class="edge"><title>B1&#45;&gt;B2</title>
<path fill="none" stroke="black" d="M74.3489,-53.0029C74.8322,-61.2388 74.8787,-70.4152 74.4886,-78.8324"/>
<polygon fill="black" stroke="black" points="70.9866,-78.735 73.7608,-88.9602 77.9686,-79.2368 70.9866,-78.735"/>
</g>
<!-- B2&#45;&gt;B1 -->
<g id="edge1" class="edge"><title>B2&#45;&gt;B1</title>
<path fill="none" stroke="black" d="M62.2392,-88.9602C61.4634,-81.321 61.1439,-72.1387 61.2808,-63.2286"/>
<polygon fill="black" stroke="black" points="64.7868,-63.123 61.6511,-53.0029 57.7914,-62.8696 64.7868,-63.123"/>
</g>
<!-- B3 -->
<g id="node4" class="node"><title>B3</title>
<polygon fill="none" stroke="black" points="200,-45.5 146,-45.5 146,-7.5 200,-7.5 200,-45.5"/>
<text text-anchor="start" x="154" y="-30.3" font-family="Times,serif" font-size="14.00">B3:</text>
<text text-anchor="middle" x="173" y="-15.3" font-family="Times,serif" font-size="14.00">(6) ...</text>
</g>
<!-- B2&#45;&gt;B3 -->
<g id="edge4" class="edge"><title>B2&#45;&gt;B3</title>
<path fill="none" stroke="black" d="M91.8261,-88.9602C106.223,-78.0598 124.77,-64.0174 140.5,-52.1074"/>
<polygon fill="black" stroke="black" points="143.045,-54.5704 148.905,-45.7436 138.819,-48.9896 143.045,-54.5704"/>
</g>
</g>
</svg>
