<?xml version="1.0" encoding="UTF-8" standalone="no"?>
<!DOCTYPE svg PUBLIC "-//W3C//DTD SVG 1.1//EN"
 "http://www.w3.org/Graphics/SVG/1.1/DTD/svg11.dtd">
<!-- Generated by graphviz version 2.38.0 (20140413.2041)
 -->
<!-- Title: for3 Pages: 1 -->
<svg width="198pt" height="298pt"
 viewBox="0.00 0.00 197.50 298.00" xmlns="http://www.w3.org/2000/svg" xmlns:xlink="http://www.w3.org/1999/xlink">
<g id="graph0" class="graph" transform="scale(1 1) rotate(0) translate(4 294)">
<title>for3</title>
<polygon fill="white" stroke="none" points="-4,4 -4,-294 193.5,-294 193.5,4 -4,4"/>
<!-- B0 -->
<g id="node1" class="node"><title>B0</title>
<polygon fill="none" stroke="black" points="189.5,-290 42.5,-290 42.5,-237 189.5,-237 189.5,-290"/>
<text text-anchor="start" x="50.5" y="-274.8" font-family="Times,serif" font-size="14.00">B0:</text>
<text text-anchor="start" x="50.5" y="-259.8" font-family="Times,serif" font-size="14.00">(1) loop&#45;initialize</text>
<text text-anchor="start" x="50.5" y="-244.8" font-family="Times,serif" font-size="14.00">(2) if !loop&#45;test goto (6)</text>
</g>
<!-- B1 -->
<g id="node2" class="node"><title>B1</title>
<polygon fill="none" stroke="black" points="127.5,-201 8.5,-201 8.5,-148 127.5,-148 127.5,-201"/>
<text text-anchor="start" x="16.5" y="-185.8" font-family="Times,serif" font-size="14.00">B1:</text>
<text text-anchor="start" x="16.5" y="-170.8" font-family="Times,serif" font-size="14.00">(3) loop&#45;body</text>
<text text-anchor="start" x="16.5" y="-155.8" font-family="Times,serif" font-size="14.00">(4) loop&#45;increment</text>
</g>
<!-- B0&#45;&gt;B1 -->
<g id="edge1" class="edge"><title>B0&#45;&gt;B1</title>
<path fill="none" stroke="black" d="M101.858,-236.868C97.2606,-228.535 92.0789,-219.143 87.1773,-210.259"/>
<polygon fill="black" stroke="black" points="90.1021,-208.315 82.2068,-201.25 83.9731,-211.696 90.1021,-208.315"/>
</g>
<!-- B3 -->
<g id="node4" class="node"><title>B3</title>
<polygon fill="none" stroke="black" points="143,-38 89,-38 89,-0 143,-0 143,-38"/>
<text text-anchor="start" x="97" y="-22.8" font-family="Times,serif" font-size="14.00">B3:</text>
<text text-anchor="middle" x="116" y="-7.8" font-family="Times,serif" font-size="14.00">(6) ...</text>
</g>
<!-- B0&#45;&gt;B3 -->
<g id="edge2" class="edge"><title>B0&#45;&gt;B3</title>
<path fill="none" stroke="black" d="M126.328,-236.892C139.63,-200.349 159.417,-131.317 145,-74 142.661,-64.7024 138.377,-55.2609 133.806,-46.9283"/>
<polygon fill="black" stroke="black" points="136.686,-44.9192 128.612,-38.0585 130.645,-48.4564 136.686,-44.9192"/>
</g>
<!-- B2 -->
<g id="node3" class="node"><title>B2</title>
<polygon fill="none" stroke="black" points="136,-112 0,-112 0,-74 136,-74 136,-112"/>
<text text-anchor="start" x="8" y="-96.8" font-family="Times,serif" font-size="14.00">B2:</text>
<text text-anchor="middle" x="68" y="-81.8" font-family="Times,serif" font-size="14.00">(5) if loo&#45;test goto (3)</text>
</g>
<!-- B1&#45;&gt;B2 -->
<g id="edge3" class="edge"><title>B1&#45;&gt;B2</title>
<path fill="none" stroke="black" d="M61.6459,-147.908C61.17,-139.738 61.1231,-130.649 61.5054,-122.298"/>
<polygon fill="black" stroke="black" points="65.0025,-122.462 62.2191,-112.239 58.0201,-121.966 65.0025,-122.462"/>
</g>
<!-- B2&#45;&gt;B1 -->
<g id="edge4" class="edge"><title>B2&#45;&gt;B1</title>
<path fill="none" stroke="black" d="M73.7809,-112.239C74.5421,-119.838 74.8548,-128.937 74.7192,-137.769"/>
<polygon fill="black" stroke="black" points="71.2164,-137.789 74.3541,-147.908 78.2118,-138.041 71.2164,-137.789"/>
</g>
<!-- B2&#45;&gt;B3 -->
<g id="edge5" class="edge"><title>B2&#45;&gt;B3</title>
<path fill="none" stroke="black" d="M80.1124,-73.8314C85.5281,-65.7079 92.0242,-55.9637 97.9921,-47.0118"/>
<polygon fill="black" stroke="black" points="101.09,-48.6753 103.724,-38.4133 95.2653,-44.7923 101.09,-48.6753"/>
</g>
</g>
</svg>
